
<svg version="1.1" class="moon-icon" width="50px" id="Capa_1" xmlns="http://www.w3.org/2000/svg" xmlns:xlink="http://www.w3.org/1999/xlink" x="0px" y="0px"
viewBox="0 0 479 479" style="enable-background:new 0 0 479 479;" xml:space="preserve">
<g>
<path d="M408.852,70.148C363.616,24.913,303.473,0,239.5,0S115.383,24.913,70.148,70.148C24.912,115.383,0,175.527,0,239.5
s24.912,124.117,70.148,169.352C115.383,454.087,175.527,479,239.5,479s124.116-24.913,169.352-70.148
C454.087,363.616,479,303.473,479,239.5S454.087,115.384,408.852,70.148z M398.246,398.246C355.843,440.648,299.466,464,239.5,464
c-59.966,0-116.343-23.352-158.746-65.754C38.352,355.843,15,299.466,15,239.5S38.352,123.157,80.754,80.754
C123.157,38.352,179.534,15,239.5,15c59.966,0,116.343,23.352,158.746,65.754C440.648,123.157,464,179.534,464,239.5
S440.648,355.843,398.246,398.246z"/>
<path d="M223.5,159c21.78,0,39.5-17.72,39.5-39.5S245.28,80,223.5,80S184,97.72,184,119.5S201.72,159,223.5,159z M223.5,95
c13.509,0,24.5,10.991,24.5,24.5S237.009,144,223.5,144S199,133.009,199,119.5S209.991,95,223.5,95z"/>
<path d="M311.5,160c-4.142,0-7.5,3.358-7.5,7.5s3.358,7.5,7.5,7.5c9.098,0,16.5,7.402,16.5,16.5s-7.402,16.5-16.5,16.5
s-16.5-7.402-16.5-16.5c0-1.89,0.315-3.74,0.936-5.498c1.379-3.906-0.668-8.19-4.574-9.569c-3.906-1.381-8.191,0.668-9.569,4.574
c-1.189,3.366-1.792,6.897-1.792,10.493c0,17.369,14.131,31.5,31.5,31.5s31.5-14.131,31.5-31.5S328.869,160,311.5,160z"/>
<path d="M279,299.5c0-4.775-0.655-9.507-1.946-14.063c-1.129-3.985-5.274-6.3-9.261-5.171c-3.985,1.129-6.3,5.275-5.171,9.261
c0.914,3.225,1.377,6.581,1.377,9.973c0,20.126-16.374,36.5-36.5,36.5S191,319.626,191,299.5s16.374-36.5,36.5-36.5
c7.57,0,14.828,2.294,20.99,6.635c3.386,2.383,8.064,1.574,10.451-1.813c2.385-3.386,1.574-8.065-1.813-10.451
c-8.704-6.13-18.949-9.371-29.628-9.371c-28.397,0-51.5,23.103-51.5,51.5s23.103,51.5,51.5,51.5S279,327.897,279,299.5z"/>
<path d="M293.596,388.981c-4.061,0.816-6.69,4.771-5.874,8.832c0.989,4.917-0.708,10.198-4.779,14.871
c-4.554,5.228-11.366,8.973-19.181,10.544c-7.815,1.571-15.544,0.751-21.766-2.31c-5.56-2.736-9.167-6.95-10.156-11.868
c-0.816-4.06-4.765-6.693-8.832-5.874c-4.061,0.816-6.69,4.771-5.874,8.832c1.928,9.586,8.405,17.531,18.24,22.369
c6.218,3.059,13.334,4.625,20.713,4.625c3.507,0,7.075-0.354,10.631-1.069c11.04-2.22,20.818-7.688,27.533-15.397
c7.199-8.264,10.102-18.095,8.174-27.681C301.611,390.795,297.661,388.165,293.596,388.981z"/>
<path d="M314.897,75.755c5.112-5.368,16.074-3.577,23.936,3.912s10.184,18.35,5.07,23.718c-2.857,3-2.741,7.747,0.258,10.604
c1.452,1.383,3.313,2.069,5.172,2.069c1.98,0,3.958-0.78,5.432-2.327c10.906-11.45,8.4-31.603-5.586-44.925
s-34.236-14.845-45.143-3.396c-2.857,2.999-2.741,7.747,0.258,10.604C307.293,78.869,312.041,78.755,314.897,75.755z"/>
<path d="M392.043,200c-0.022,0-0.044,0-0.066,0c-4.111,0-7.462,3.315-7.498,7.435c-0.036,4.142,3.292,7.529,7.435,7.564
c7.413,0.064,13.596,9.291,13.502,20.147c-0.049,5.625-1.79,11.039-4.777,14.853c-1.483,1.894-4.617,5.057-8.994,5.057
c-0.048,0-0.097,0-0.146,0c-4.111,0-7.462,3.315-7.498,7.435c-0.036,4.142,3.292,7.529,7.434,7.565
c0.069,0.001,0.136,0.001,0.205,0.001c7.848,0,15.422-3.931,20.809-10.809c5.059-6.46,7.888-14.973,7.966-23.971
C420.582,215.963,407.855,200.138,392.043,200z"/>
<path d="M140.849,94.381c-9.402-9.566-26.449-8.113-38,3.24c-11.551,11.352-13.3,28.371-3.899,37.938
c1.468,1.494,3.409,2.243,5.35,2.243c1.897,0,3.796-0.716,5.256-2.15c2.955-2.903,2.996-7.652,0.093-10.606
c-3.482-3.543-1.747-11.359,3.714-16.726c5.461-5.367,13.306-6.966,16.788-3.423c2.904,2.954,7.652,2.995,10.606,0.092
C143.711,102.084,143.752,97.335,140.849,94.381z"/>
<path d="M99.5,184C79.925,184,64,201.72,64,223.5S79.925,263,99.5,263s35.5-17.72,35.5-39.5S119.075,184,99.5,184z M99.5,248
C88.196,248,79,237.009,79,223.5S88.196,199,99.5,199s20.5,10.991,20.5,24.5S110.804,248,99.5,248z"/>
<path d="M71.283,319.283c-12.282,12.282-9.744,34.804,5.657,50.205c8.835,8.835,20.011,13.436,30.255,13.436
c7.613,0,14.713-2.543,19.949-7.779c12.282-12.282,9.744-34.803-5.657-50.204C106.087,309.539,83.565,307.001,71.283,319.283z
	M116.538,364.538c-6.325,6.324-19.602,3.733-28.992-5.657c-9.391-9.391-11.981-22.667-5.657-28.992
c2.347-2.346,5.65-3.466,9.357-3.466c6.284,0,13.728,3.217,19.635,9.123C120.272,344.938,122.862,358.214,116.538,364.538z"/>
<path d="M353.624,322.341c-5.49,5.49-9.063,12.357-10.06,19.336c-1.095,7.664,1.088,14.871,5.988,19.771
c4.07,4.07,9.73,6.265,15.923,6.265c1.263,0,2.55-0.091,3.848-0.277c6.979-0.997,13.846-4.569,19.336-10.06
c12.106-12.106,13.895-29.284,4.072-39.107S365.73,310.234,353.624,322.341z M378.052,346.77
c-3.164,3.164-7.119,5.284-10.851,5.817c-1.732,0.247-4.948,0.35-7.043-1.746c-2.095-2.095-1.993-5.312-1.746-7.042
c0.533-3.732,2.653-7.688,5.817-10.851c5.851-5.85,14.212-7.751,17.894-4.071C385.393,332.145,384.524,340.297,378.052,346.77z"/>
<path d="M182.996,183.5c0-1.97-0.8-3.91-2.19-5.3c-1.4-1.4-3.33-2.2-5.31-2.2c-1.97,0-3.9,0.8-5.3,2.2
c-1.39,1.39-2.19,3.33-2.19,5.3c0,1.97,0.8,3.91,2.19,5.3c1.4,1.4,3.33,2.2,5.3,2.2c1.98,0,3.91-0.8,5.31-2.2
C182.196,187.41,182.996,185.47,182.996,183.5z"/>
<path d="M143.496,280c-1.97,0-3.9,0.8-5.3,2.2c-1.39,1.39-2.2,3.32-2.2,5.3c0,1.97,0.81,3.91,2.2,5.3c1.4,1.4,3.33,2.2,5.3,2.2
c1.98,0,3.91-0.8,5.31-2.2c1.39-1.39,2.19-3.33,2.19-5.3c0-1.98-0.8-3.91-2.19-5.3C147.406,280.8,145.476,280,143.496,280z"/>
<path d="M348.806,284.8c1.39-1.39,2.19-3.33,2.19-5.3c0-1.97-0.8-3.91-2.19-5.3c-1.4-1.4-3.33-2.2-5.3-2.2
c-1.98,0-3.91,0.8-5.31,2.2c-1.39,1.39-2.2,3.33-2.2,5.3c0,1.97,0.81,3.91,2.2,5.3c1.4,1.4,3.33,2.2,5.31,2.2
C345.476,287,347.406,286.2,348.806,284.8z"/>
<path d="M383.505,175c1.97,0,3.9-0.8,5.3-2.2c1.39-1.39,2.19-3.32,2.19-5.3c0-1.97-0.8-3.91-2.19-5.3c-1.4-1.4-3.33-2.2-5.3-2.2
c-1.98,0-3.91,0.8-5.31,2.2c-1.39,1.39-2.19,3.33-2.19,5.3c0,1.98,0.8,3.91,2.19,5.3C379.596,174.2,381.525,175,383.505,175z"/>
<path d="M215.496,55c1.98,0,3.91-0.8,5.31-2.2c1.39-1.39,2.19-3.33,2.19-5.3c0-1.97-0.8-3.91-2.19-5.3c-1.4-1.4-3.33-2.2-5.31-2.2
c-1.97,0-3.9,0.8-5.3,2.2c-1.39,1.39-2.19,3.33-2.19,5.3c0,1.97,0.8,3.91,2.19,5.3C211.596,54.2,213.525,55,215.496,55z"/>
<path d="M167.505,384c-1.98,0-3.91,0.8-5.31,2.2c-1.39,1.39-2.2,3.33-2.2,5.3c0,1.97,0.81,3.91,2.2,5.3c1.4,1.4,3.33,2.2,5.31,2.2
c1.97,0,3.9-0.8,5.3-2.2c1.39-1.39,2.2-3.33,2.2-5.3c0-1.97-0.81-3.91-2.2-5.3C171.406,384.8,169.476,384,167.505,384z"/>
</g>
<g>
</g>
<g>
</g>
<g>
</g>
<g>
</g>
<g>
</g>
<g>
</g>
<g>
</g>
<g>
</g>
<g>
</g>
<g>
</g>
<g>
</g>
<g>
</g>
<g>
</g>
<g>
</g>
<g>
</g>
</svg>
